<svg xmlns="http://www.w3.org/2000/svg" viewBox="0 0 800 280">
  <defs>
    <linearGradient id="bg" x1="0%" y1="0%" x2="100%" y2="100%">
      <stop offset="0%" style="stop-color:#0f1320"/><stop offset="100%" style="stop-color:#181e33"/>
    </linearGradient>
    <filter id="g"><feGaussianBlur stdDeviation="1.5" result="b"/><feMerge><feMergeNode in="b"/><feMergeNode in="SourceGraphic"/></feMerge></filter>
  </defs>
  <rect width="800" height="280" fill="url(#bg)" rx="10"/>
  <text x="400" y="28" text-anchor="middle" font-family="sans-serif" font-size="14" font-weight="700" fill="#e2e8f0">Unterstützte Netzwerk-Topologien</text>

  <!-- Star -->
  <g transform="translate(80,140)" filter="url(#g)">
    <circle cx="0" cy="0" r="8" fill="#00d4ff"/>
    <circle cx="0" cy="-45" r="5" fill="#1e3a5f" stroke="#00d4ff" stroke-width="1"/>
    <circle cx="43" cy="-14" r="5" fill="#1e3a5f" stroke="#00d4ff" stroke-width="1"/>
    <circle cx="27" cy="36" r="5" fill="#1e3a5f" stroke="#00d4ff" stroke-width="1"/>
    <circle cx="-27" cy="36" r="5" fill="#1e3a5f" stroke="#00d4ff" stroke-width="1"/>
    <circle cx="-43" cy="-14" r="5" fill="#1e3a5f" stroke="#00d4ff" stroke-width="1"/>
    <line x1="0" y1="0" x2="0" y2="-45" stroke="#00d4ff" stroke-width="0.8" opacity="0.6"/>
    <line x1="0" y1="0" x2="43" y2="-14" stroke="#00d4ff" stroke-width="0.8" opacity="0.6"/>
    <line x1="0" y1="0" x2="27" y2="36" stroke="#00d4ff" stroke-width="0.8" opacity="0.6"/>
    <line x1="0" y1="0" x2="-27" y2="36" stroke="#00d4ff" stroke-width="0.8" opacity="0.6"/>
    <line x1="0" y1="0" x2="-43" y2="-14" stroke="#00d4ff" stroke-width="0.8" opacity="0.6"/>
  </g>
  <text x="80" y="225" text-anchor="middle" font-family="sans-serif" font-size="11" font-weight="600" fill="#00d4ff">⭐ Stern</text>

  <!-- Ring -->
  <g transform="translate(220,140)" filter="url(#g)">
    <circle cx="0" cy="-35" r="5" fill="#1e3a5f" stroke="#7b2ff7" stroke-width="1.5"/>
    <circle cx="33" cy="-11" r="5" fill="#1e3a5f" stroke="#7b2ff7" stroke-width="1.5"/>
    <circle cx="20" cy="28" r="5" fill="#1e3a5f" stroke="#7b2ff7" stroke-width="1.5"/>
    <circle cx="-20" cy="28" r="5" fill="#1e3a5f" stroke="#7b2ff7" stroke-width="1.5"/>
    <circle cx="-33" cy="-11" r="5" fill="#1e3a5f" stroke="#7b2ff7" stroke-width="1.5"/>
    <path d="M 0,-35 A 35,35 0 0,1 33,-11 A 35,35 0 0,1 20,28 A 35,35 0 0,1 -20,28 A 35,35 0 0,1 -33,-11 A 35,35 0 0,1 0,-35" fill="none" stroke="#7b2ff7" stroke-width="1" opacity="0.5"/>
  </g>
  <text x="220" y="225" text-anchor="middle" font-family="sans-serif" font-size="11" font-weight="600" fill="#7b2ff7">🔄 Ring</text>

  <!-- Bus -->
  <g transform="translate(360,140)" filter="url(#g)">
    <line x1="-50" y1="0" x2="50" y2="0" stroke="#fbbf24" stroke-width="2"/>
    <circle cx="-40" cy="0" r="5" fill="#1e3a5f" stroke="#fbbf24" stroke-width="1.5"/>
    <circle cx="-15" cy="0" r="5" fill="#1e3a5f" stroke="#fbbf24" stroke-width="1.5"/>
    <circle cx="10" cy="0" r="5" fill="#1e3a5f" stroke="#fbbf24" stroke-width="1.5"/>
    <circle cx="35" cy="0" r="5" fill="#1e3a5f" stroke="#fbbf24" stroke-width="1.5"/>
    <line x1="-40" y1="-20" x2="-40" y2="0" stroke="#fbbf24" stroke-width="0.8" opacity="0.5"/>
    <line x1="-15" y1="-20" x2="-15" y2="0" stroke="#fbbf24" stroke-width="0.8" opacity="0.5"/>
    <line x1="10" y1="-20" x2="10" y2="0" stroke="#fbbf24" stroke-width="0.8" opacity="0.5"/>
    <line x1="35" y1="-20" x2="35" y2="0" stroke="#fbbf24" stroke-width="0.8" opacity="0.5"/>
    <circle cx="-40" cy="-25" r="4" fill="#2a2a1a" stroke="#fbbf24" stroke-width="1"/>
    <circle cx="-15" cy="-25" r="4" fill="#2a2a1a" stroke="#fbbf24" stroke-width="1"/>
    <circle cx="10" cy="-25" r="4" fill="#2a2a1a" stroke="#fbbf24" stroke-width="1"/>
    <circle cx="35" cy="-25" r="4" fill="#2a2a1a" stroke="#fbbf24" stroke-width="1"/>
  </g>
  <text x="360" y="225" text-anchor="middle" font-family="sans-serif" font-size="11" font-weight="600" fill="#fbbf24">🚌 Bus</text>

  <!-- Mesh -->
  <g transform="translate(500,140)" filter="url(#g)">
    <line x1="-30" y1="-30" x2="30" y2="-30" stroke="#00ff88" stroke-width="0.8" opacity="0.5"/>
    <line x1="-30" y1="-30" x2="-30" y2="30" stroke="#00ff88" stroke-width="0.8" opacity="0.5"/>
    <line x1="-30" y1="-30" x2="30" y2="30" stroke="#00ff88" stroke-width="0.8" opacity="0.5"/>
    <line x1="30" y1="-30" x2="-30" y2="30" stroke="#00ff88" stroke-width="0.8" opacity="0.5"/>
    <line x1="30" y1="-30" x2="30" y2="30" stroke="#00ff88" stroke-width="0.8" opacity="0.5"/>
    <line x1="-30" y1="30" x2="30" y2="30" stroke="#00ff88" stroke-width="0.8" opacity="0.5"/>
    <circle cx="-30" cy="-30" r="5" fill="#1a2a1a" stroke="#00ff88" stroke-width="1.5"/>
    <circle cx="30" cy="-30" r="5" fill="#1a2a1a" stroke="#00ff88" stroke-width="1.5"/>
    <circle cx="-30" cy="30" r="5" fill="#1a2a1a" stroke="#00ff88" stroke-width="1.5"/>
    <circle cx="30" cy="30" r="5" fill="#1a2a1a" stroke="#00ff88" stroke-width="1.5"/>
  </g>
  <text x="500" y="225" text-anchor="middle" font-family="sans-serif" font-size="11" font-weight="600" fill="#00ff88">🕸️ Mesh</text>

  <!-- Tree -->
  <g transform="translate(640,120)" filter="url(#g)">
    <line x1="0" y1="0" x2="-35" y2="30" stroke="#ff6b6b" stroke-width="0.8" opacity="0.5"/>
    <line x1="0" y1="0" x2="35" y2="30" stroke="#ff6b6b" stroke-width="0.8" opacity="0.5"/>
    <line x1="-35" y1="30" x2="-50" y2="60" stroke="#ff6b6b" stroke-width="0.8" opacity="0.5"/>
    <line x1="-35" y1="30" x2="-20" y2="60" stroke="#ff6b6b" stroke-width="0.8" opacity="0.5"/>
    <line x1="35" y1="30" x2="20" y2="60" stroke="#ff6b6b" stroke-width="0.8" opacity="0.5"/>
    <line x1="35" y1="30" x2="50" y2="60" stroke="#ff6b6b" stroke-width="0.8" opacity="0.5"/>
    <circle cx="0" cy="0" r="6" fill="#2a1a1a" stroke="#ff6b6b" stroke-width="1.5"/>
    <circle cx="-35" cy="30" r="5" fill="#2a1a1a" stroke="#ff6b6b" stroke-width="1.5"/>
    <circle cx="35" cy="30" r="5" fill="#2a1a1a" stroke="#ff6b6b" stroke-width="1.5"/>
    <circle cx="-50" cy="60" r="4" fill="#2a1a1a" stroke="#ff6b6b" stroke-width="1"/>
    <circle cx="-20" cy="60" r="4" fill="#2a1a1a" stroke="#ff6b6b" stroke-width="1"/>
    <circle cx="20" cy="60" r="4" fill="#2a1a1a" stroke="#ff6b6b" stroke-width="1"/>
    <circle cx="50" cy="60" r="4" fill="#2a1a1a" stroke="#ff6b6b" stroke-width="1"/>
  </g>
  <text x="640" y="225" text-anchor="middle" font-family="sans-serif" font-size="11" font-weight="600" fill="#ff6b6b">🌳 Baum</text>

  <!-- Hybrid -->
  <text x="740" y="225" text-anchor="middle" font-family="sans-serif" font-size="11" font-weight="600" fill="#e2e8f0">🔀 Hybrid</text>
  <g transform="translate(740,140)" filter="url(#g)">
    <circle cx="0" cy="0" r="6" fill="#1e3a5f" stroke="#e2e8f0" stroke-width="1"/>
    <circle cx="-25" cy="-25" r="4" fill="#1e3a5f" stroke="#00d4ff" stroke-width="1"/>
    <circle cx="25" cy="-25" r="4" fill="#1a2a1a" stroke="#00ff88" stroke-width="1"/>
    <circle cx="-25" cy="25" r="4" fill="#2a1a1a" stroke="#ff6b6b" stroke-width="1"/>
    <circle cx="25" cy="25" r="4" fill="#2a2a1a" stroke="#fbbf24" stroke-width="1"/>
    <line x1="0" y1="0" x2="-25" y2="-25" stroke="#e2e8f0" stroke-width="0.7" opacity="0.5"/>
    <line x1="0" y1="0" x2="25" y2="-25" stroke="#e2e8f0" stroke-width="0.7" opacity="0.5"/>
    <line x1="0" y1="0" x2="-25" y2="25" stroke="#e2e8f0" stroke-width="0.7" opacity="0.5"/>
    <line x1="0" y1="0" x2="25" y2="25" stroke="#e2e8f0" stroke-width="0.7" opacity="0.5"/>
    <line x1="-25" y1="-25" x2="25" y2="-25" stroke="#e2e8f0" stroke-width="0.5" opacity="0.3"/>
  </g>
</svg>
