<svg xmlns="http://www.w3.org/2000/svg" viewBox="0 0 800 420">
  <defs>
    <linearGradient id="bg" x1="0%" y1="0%" x2="100%" y2="100%">
      <stop offset="0%" style="stop-color:#0a0e1a"/><stop offset="100%" style="stop-color:#131830"/>
    </linearGradient>
    <filter id="s"><feDropShadow dx="0" dy="2" stdDeviation="3" flood-color="#000" flood-opacity="0.3"/></filter>
  </defs>
  <rect width="800" height="420" fill="url(#bg)" rx="12"/>
  
  <!-- Title bar -->
  <rect x="0" y="0" width="800" height="35" rx="12" fill="#1a1e30"/>
  <rect x="0" y="12" width="800" height="23" fill="#1a1e30"/>
  <circle cx="20" cy="17" r="5" fill="#ff5f56"/><circle cx="38" cy="17" r="5" fill="#ffbd2e"/><circle cx="56" cy="17" r="5" fill="#27c93f"/>
  <text x="400" y="22" text-anchor="middle" font-family="sans-serif" font-size="11" fill="#8892b0">NetzwerkTech AI — Live Dashboard</text>

  <!-- Sidebar -->
  <rect x="0" y="35" width="160" height="385" fill="#0d1220"/>
  <text x="80" y="65" text-anchor="middle" font-family="sans-serif" font-size="12" font-weight="700" fill="#00d4ff">🌐 NetzTech</text>
  <rect x="10" y="80" width="140" height="28" rx="4" fill="#1a2744"/>
  <text x="80" y="99" text-anchor="middle" font-family="sans-serif" font-size="10" fill="#00d4ff">📊 Dashboard</text>
  <text x="80" y="130" text-anchor="middle" font-family="sans-serif" font-size="10" fill="#5a6080">🔍 Anomalien</text>
  <text x="80" y="155" text-anchor="middle" font-family="sans-serif" font-size="10" fill="#5a6080">🌐 Topologie</text>
  <text x="80" y="180" text-anchor="middle" font-family="sans-serif" font-size="10" fill="#5a6080">📈 Traffic</text>
  <text x="80" y="205" text-anchor="middle" font-family="sans-serif" font-size="10" fill="#5a6080">🔮 Prognosen</text>
  <text x="80" y="230" text-anchor="middle" font-family="sans-serif" font-size="10" fill="#5a6080">⚙️ Settings</text>

  <!-- KPI Cards -->
  <g filter="url(#s)">
    <rect x="175" y="48" width="145" height="70" rx="6" fill="#162040" stroke="#1e3a5f" stroke-width="0.5"/>
    <text x="190" y="68" font-family="sans-serif" font-size="9" fill="#5a6080">Aktive Geräte</text>
    <text x="190" y="95" font-family="sans-serif" font-size="24" font-weight="700" fill="#00d4ff">1,247</text>
    <text x="190" y="110" font-family="sans-serif" font-size="9" fill="#4ade80">↑ 12 neue</text>
  </g>
  <g filter="url(#s)">
    <rect x="330" y="48" width="145" height="70" rx="6" fill="#162040" stroke="#1e3a5f" stroke-width="0.5"/>
    <text x="345" y="68" font-family="sans-serif" font-size="9" fill="#5a6080">Anomalien (24h)</text>
    <text x="345" y="95" font-family="sans-serif" font-size="24" font-weight="700" fill="#ff6b6b">23</text>
    <text x="345" y="110" font-family="sans-serif" font-size="9" fill="#ff6b6b">↑ 3 kritisch</text>
  </g>
  <g filter="url(#s)">
    <rect x="485" y="48" width="145" height="70" rx="6" fill="#162040" stroke="#1e3a5f" stroke-width="0.5"/>
    <text x="500" y="68" font-family="sans-serif" font-size="9" fill="#5a6080">Durchsatz</text>
    <text x="500" y="95" font-family="sans-serif" font-size="24" font-weight="700" fill="#00ff88">34.2</text>
    <text x="560" y="95" font-family="sans-serif" font-size="12" fill="#00ff88">Gbps</text>
    <text x="500" y="110" font-family="sans-serif" font-size="9" fill="#4ade80">↑ 8.3%</text>
  </g>
  <g filter="url(#s)">
    <rect x="640" y="48" width="145" height="70" rx="6" fill="#162040" stroke="#1e3a5f" stroke-width="0.5"/>
    <text x="655" y="68" font-family="sans-serif" font-size="9" fill="#5a6080">KI-Confidence</text>
    <text x="655" y="95" font-family="sans-serif" font-size="24" font-weight="700" fill="#c084fc">97.4%</text>
    <text x="655" y="110" font-family="sans-serif" font-size="9" fill="#4ade80">stabil</text>
  </g>

  <!-- Traffic Chart -->
  <g filter="url(#s)">
    <rect x="175" y="130" width="310" height="155" rx="6" fill="#162040" stroke="#1e3a5f" stroke-width="0.5"/>
    <text x="190" y="152" font-family="sans-serif" font-size="10" font-weight="600" fill="#e2e8f0">Netzwerk-Traffic (Echtzeit)</text>
    <!-- Chart area -->
    <line x1="195" y1="265" x2="470" y2="265" stroke="#1e3a5f" stroke-width="0.5"/>
    <!-- Area chart -->
    <polygon points="195,265 210,240 230,245 250,220 270,230 290,200 310,210 330,185 350,195 370,175 390,190 410,170 430,180 450,165 470,175 470,265" fill="#00d4ff" fill-opacity="0.1" stroke="#00d4ff" stroke-width="1.5"/>
    <polygon points="195,265 210,250 230,255 250,240 270,245 290,230 310,235 330,220 350,228 370,215 390,222 410,210 430,218 450,208 470,215 470,265" fill="#7b2ff7" fill-opacity="0.1" stroke="#7b2ff7" stroke-width="1"/>
    <!-- Labels -->
    <text x="195" y="278" font-family="monospace" font-size="7" fill="#5a6080">00:00</text>
    <text x="330" y="278" font-family="monospace" font-size="7" fill="#5a6080">12:00</text>
    <text x="460" y="278" font-family="monospace" font-size="7" fill="#5a6080">jetzt</text>
    <!-- Legend -->
    <line x1="375" y1="148" x2="390" y2="148" stroke="#00d4ff" stroke-width="2"/>
    <text x="393" y="152" font-family="sans-serif" font-size="8" fill="#8892b0">Inbound</text>
    <line x1="430" y1="148" x2="445" y2="148" stroke="#7b2ff7" stroke-width="2"/>
    <text x="448" y="152" font-family="sans-serif" font-size="8" fill="#8892b0">Outbound</text>
  </g>

  <!-- Anomaly List -->
  <g filter="url(#s)">
    <rect x="495" y="130" width="290" height="155" rx="6" fill="#162040" stroke="#1e3a5f" stroke-width="0.5"/>
    <text x="510" y="152" font-family="sans-serif" font-size="10" font-weight="600" fill="#e2e8f0">Letzte Anomalien</text>
    <rect x="505" y="160" width="270" height="26" rx="3" fill="#2a1a1a"/>
    <circle cx="518" cy="173" r="4" fill="#ff6b6b"/>
    <text x="530" y="176" font-family="monospace" font-size="8" fill="#ff6b6b">DDoS-Versuch</text>
    <text x="705" y="176" font-family="monospace" font-size="8" fill="#5a6080">vor 2m</text>
    <rect x="505" y="190" width="270" height="26" rx="3" fill="#1a2a2a"/>
    <circle cx="518" cy="203" r="4" fill="#fbbf24"/>
    <text x="530" y="206" font-family="monospace" font-size="8" fill="#fbbf24">Port Scan</text>
    <text x="705" y="206" font-family="monospace" font-size="8" fill="#5a6080">vor 8m</text>
    <rect x="505" y="220" width="270" height="26" rx="3" fill="#1a2a2a"/>
    <circle cx="518" cy="233" r="4" fill="#fbbf24"/>
    <text x="530" y="236" font-family="monospace" font-size="8" fill="#fbbf24">Ungewöhnl. Traffic</text>
    <text x="700" y="236" font-family="monospace" font-size="8" fill="#5a6080">vor 15m</text>
    <rect x="505" y="250" width="270" height="26" rx="3" fill="#1a2a1a"/>
    <circle cx="518" cy="263" r="4" fill="#4ade80"/>
    <text x="530" y="266" font-family="monospace" font-size="8" fill="#4ade80">Resolved: Timeout</text>
    <text x="700" y="266" font-family="monospace" font-size="8" fill="#5a6080">vor 22m</text>
  </g>

  <!-- Mini Topology -->
  <g filter="url(#s)">
    <rect x="175" y="298" width="200" height="110" rx="6" fill="#162040" stroke="#1e3a5f" stroke-width="0.5"/>
    <text x="190" y="318" font-family="sans-serif" font-size="10" font-weight="600" fill="#e2e8f0">Topologie</text>
    <!-- Mini network -->
    <circle cx="275" cy="355" r="12" fill="#1e3a5f" stroke="#00d4ff" stroke-width="1"/>
    <text x="275" y="359" text-anchor="middle" font-family="sans-serif" font-size="7" fill="#00d4ff">Core</text>
    <circle cx="225" cy="335" r="6" fill="#1a2a1a" stroke="#00ff88" stroke-width="0.8"/>
    <circle cx="325" cy="335" r="6" fill="#1a2a1a" stroke="#00ff88" stroke-width="0.8"/>
    <circle cx="225" cy="380" r="6" fill="#1a2a1a" stroke="#00ff88" stroke-width="0.8"/>
    <circle cx="325" cy="380" r="6" fill="#2a1a1a" stroke="#ff6b6b" stroke-width="0.8"/>
    <line x1="275" y1="355" x2="225" y2="335" stroke="#3b4563" stroke-width="0.5"/>
    <line x1="275" y1="355" x2="325" y2="335" stroke="#3b4563" stroke-width="0.5"/>
    <line x1="275" y1="355" x2="225" y2="380" stroke="#3b4563" stroke-width="0.5"/>
    <line x1="275" y1="355" x2="325" y2="380" stroke="#ff6b6b" stroke-width="0.5" stroke-dasharray="2,1"/>
  </g>

  <!-- Prediction -->
  <g filter="url(#s)">
    <rect x="385" y="298" width="200" height="110" rx="6" fill="#162040" stroke="#1e3a5f" stroke-width="0.5"/>
    <text x="400" y="318" font-family="sans-serif" font-size="10" font-weight="600" fill="#e2e8f0">🔮 Vorhersagen</text>
    <text x="400" y="342" font-family="monospace" font-size="8" fill="#4ade80">Switch-04: 99.2% uptime</text>
    <text x="400" y="358" font-family="monospace" font-size="8" fill="#fbbf24">Router-02: Wartung in 5d</text>
    <text x="400" y="374" font-family="monospace" font-size="8" fill="#ff6b6b">FW-01: Kapazität 89%</text>
    <text x="400" y="394" font-family="monospace" font-size="8" fill="#00d4ff">Nächstes Event: ~48h</text>
  </g>

  <!-- AI Status -->
  <g filter="url(#s)">
    <rect x="595" y="298" width="190" height="110" rx="6" fill="#162040" stroke="#1e3a5f" stroke-width="0.5"/>
    <text x="610" y="318" font-family="sans-serif" font-size="10" font-weight="600" fill="#e2e8f0">🧠 KI-Status</text>
    <text x="610" y="342" font-family="monospace" font-size="8" fill="#4ade80">● Anomaly: aktiv</text>
    <text x="610" y="358" font-family="monospace" font-size="8" fill="#4ade80">● Traffic: aktiv</text>
    <text x="610" y="374" font-family="monospace" font-size="8" fill="#4ade80">● IDS: aktiv</text>
    <text x="610" y="390" font-family="monospace" font-size="8" fill="#fbbf24">● Optimizer: training</text>
    <text x="610" y="403" font-family="monospace" font-size="7" fill="#5a6080">GPU: A100 | VRAM: 34/80GB</text>
  </g>
</svg>
